<?xml version="1.0" encoding="UTF-8" standalone="no"?>
<!-- Created with Inkscape (http://www.inkscape.org/) -->

<svg
   xmlns:dc="http://purl.org/dc/elements/1.1/"
   xmlns:cc="http://creativecommons.org/ns#"
   xmlns:rdf="http://www.w3.org/1999/02/22-rdf-syntax-ns#"
   xmlns:svg="http://www.w3.org/2000/svg"
   xmlns="http://www.w3.org/2000/svg"
   xmlns:sodipodi="http://sodipodi.sourceforge.net/DTD/sodipodi-0.dtd"
   xmlns:inkscape="http://www.inkscape.org/namespaces/inkscape"
   width="100"
   height="100"
   viewBox="0 0 100 100"
   id="svg2"
   version="1.1"
   inkscape:version="0.91 r"
   inkscape:export-filename="/home/mattsilber/Desktop/theme_ic_custom.png"
   inkscape:export-xdpi="89.900002"
   inkscape:export-ydpi="89.900002"
   sodipodi:docname="ic_settings.svg">
  <defs
     id="defs4" />
  <sodipodi:namedview
     id="base"
     pagecolor="#ffffff"
     bordercolor="#666666"
     borderopacity="1.0"
     inkscape:pageopacity="0.0"
     inkscape:pageshadow="2"
     inkscape:zoom="2.8284271"
     inkscape:cx="15.421465"
     inkscape:cy="70.174959"
     inkscape:document-units="px"
     inkscape:current-layer="layer1"
     showgrid="false"
     units="px"
     showguides="true"
     inkscape:guide-bbox="true"
     inkscape:window-width="1920"
     inkscape:window-height="1023"
     inkscape:window-x="0"
     inkscape:window-y="0"
     inkscape:window-maximized="1">
    <sodipodi:guide
       position="164.28571,-40.714286"
       orientation="1,0"
       id="guide4136" />
    <sodipodi:guide
       position="-32.142857,-81.428572"
       orientation="0,1"
       id="guide4138" />
  </sodipodi:namedview>
  <metadata
     id="metadata7">
    <rdf:RDF>
      <cc:Work
         rdf:about="">
        <dc:format>image/svg+xml</dc:format>
        <dc:type
           rdf:resource="http://purl.org/dc/dcmitype/StillImage" />
        <dc:title />
      </cc:Work>
    </rdf:RDF>
  </metadata>
  <g
     inkscape:label="Layer 1"
     inkscape:groupmode="layer"
     id="layer1"
     transform="translate(0,-952.36216)">
    <path
       style="fill:#ffffff;fill-opacity:1"
       id="path4579"
       d="m 93.617494,991.52518 -4.744548,0 c -0.862645,-3.23492 -2.156613,-6.36201 -3.774073,-9.27344 l 3.34275,-3.34275 c 1.833121,-1.83312 1.833121,-4.85237 0,-6.6855 l -8.626451,-8.62645 c -1.833121,-1.83312 -4.852379,-1.83312 -6.6855,0 l -3.34275,3.34275 c -2.911427,-1.61746 -5.930685,-2.91142 -9.273435,-3.77407 l 0,-4.63672 c 0.107831,-2.58793 -2.048782,-4.74454 -4.636717,-4.74454 l -12.077032,0 c -2.587935,0 -4.744548,2.15661 -4.744548,4.74454 l 0,4.74455 c -3.234919,0.86265 -6.362008,2.15661 -9.273435,3.77407 l -3.34275,-3.34275 c -1.833121,-1.83312 -4.852379,-1.83312 -6.6855,0 l -8.626451,8.62646 c -1.8331206,1.83312 -1.8331206,4.85237 0,6.68549 l 3.34275,3.34275 c -1.617459,2.91143 -2.911427,5.93069 -3.774072,9.27344 l -4.6367178,0 c -2.5879353,-0.10783 -4.7445481,2.04878 -4.7445481,4.63672 l 0,12.18487 c 0,2.588 2.1566128,4.6368 4.7445481,4.6368 l 4.7445478,0 c 0.862645,3.2349 2.156613,6.362 3.774073,9.2734 l -3.34275,3.3427 c -1.8331209,1.8332 -1.8331209,4.8524 0,6.6855 l 8.626451,8.6265 c 1.833121,1.8331 4.852379,1.8331 6.6855,0 l 3.34275,-3.3428 c 2.911427,1.6175 5.930685,2.9115 9.273435,3.7741 l 0,4.7446 c 0,2.5879 2.156612,4.7445 4.744548,4.7445 l 12.184862,0 c 2.587936,0 4.744548,-2.1566 4.744548,-4.7445 l 0,-4.7446 c 3.23492,-0.8626 6.362008,-2.1566 9.273435,-3.7741 l 3.34275,3.3428 c 1.833121,1.8331 4.852379,1.8331 6.6855,0 l 8.626451,-8.6265 c 1.833121,-1.8331 1.833121,-4.8523 0,-6.6855 l -3.34275,-3.3427 c 1.61746,-2.9114 2.911428,-5.9307 3.774073,-9.2734 l 4.744548,0 c 2.587935,0 4.744548,-2.1567 4.744548,-4.7446 l 0,-12.07707 c -0.323492,-2.58794 -2.480105,-4.74455 -5.06804,-4.74455 z m -43.77924,39.35822 c -20.649568,0 -28.57512,-15.2041 -28.57512,-28.5751 0,-13.37106 10.216954,-28.57518 28.57512,-28.57518 19.166896,0 28.57512,15.20412 28.57512,28.57518 0,13.371 -8.599494,28.5751 -28.57512,28.5751 z"
       inkscape:connector-curvature="0"
       sodipodi:nodetypes="sccsssscccsssccsssscccsssccssssccssssccssssccsscssssss" />
  </g>
</svg>
